HIERARCHY
ROOT Hips
{
    OFFSET 0.000000 0.000000 0.000000
    CHANNELS 6 Xposition Yposition Zposition Zrotation Xrotation Yrotation
    JOINT Spine
    {
        OFFSET 0.000002 7.901014 -0.000008
        CHANNELS 3 Zrotation Xrotation Yrotation
        JOINT Spine1
        {
            OFFSET 0.000005 20.955456 -0.000012
            CHANNELS 3 Zrotation Xrotation Yrotation
            JOINT Neck
            {
                OFFSET 0.000008 22.118921 -0.000034
                CHANNELS 3 Zrotation Xrotation Yrotation
                JOINT Head
                {
                    OFFSET 0.000001 14.105339 1.902230
                    CHANNELS 3 Zrotation Xrotation Yrotation
                    End Site
                    {
                        OFFSET 0.000000 19.022141 0.000000
                    }
                }
            }
            JOINT LeftShoulder
            {
                OFFSET 3.797831 16.121206 -0.677298
                CHANNELS 3 Zrotation Xrotation Yrotation
                JOINT LeftArm
                {
                    OFFSET 11.576590 -0.000001 -0.000012
                    CHANNELS 3 Zrotation Xrotation Yrotation
                    JOINT LeftForeArm
                    {
                        OFFSET 29.906412 0.000000 -0.000013
                        CHANNELS 3 Zrotation Xrotation Yrotation
                        JOINT LeftHand
                        {
                            OFFSET 24.318325 0.000007 0.000004
                            CHANNELS 3 Zrotation Xrotation Yrotation
                            JOINT LeftHandThumb1
                            {
                                OFFSET 1.987815 -2.258880 3.162413
                                CHANNELS 3 Zrotation Xrotation Yrotation
                                JOINT LeftHandThumb2
                                {
                                    OFFSET 3.002297 0.000003 0.000002
                                    CHANNELS 3 Zrotation Xrotation Yrotation
                                    JOINT LeftHandThumb3
                                    {
                                        OFFSET 2.566087 -0.000008 -0.000007
                                        CHANNELS 3 Zrotation Xrotation Yrotation
                                        End Site
                                        {
                                            OFFSET 2.440626 0.000000 0.000000
                                        }
                                    }
                                }
                            }
                            JOINT LeftHandIndex1
                            {
                                OFFSET 8.131966 0.000004 3.162448
                                CHANNELS 3 Zrotation Xrotation Yrotation
                                JOINT LeftHandIndex2
                                {
                                    OFFSET 4.517758 0.000006 0.000019
                                    CHANNELS 3 Zrotation Xrotation Yrotation
                                    JOINT LeftHandIndex3
                                    {
                                        OFFSET 2.258881 -0.000003 -0.000013
                                        CHANNELS 3 Zrotation Xrotation Yrotation
                                        End Site
                                        {
                                            OFFSET 2.148437 0.000000 0.000000
                                        }
                                    }
                                }
                            }
                            JOINT LeftHandMiddle1
                            {
                                OFFSET 8.131964 0.000004 1.048138
                                CHANNELS 3 Zrotation Xrotation Yrotation
                                JOINT LeftHandMiddle2
                                {
                                    OFFSET 4.969532 0.000000 -0.000012
                                    CHANNELS 3 Zrotation Xrotation Yrotation
                                    JOINT LeftHandMiddle3
                                    {
                                        OFFSET 2.710657 0.000001 0.000003
                                        CHANNELS 3 Zrotation Xrotation Yrotation
                                        End Site
                                        {
                                            OFFSET 2.578118 0.000000 0.000000
                                        }
                                    }
                                }
                            }
                            JOINT LeftHandRing1
                            {
                                OFFSET 7.680191 0.000001 -1.048140
                                CHANNELS 3 Zrotation Xrotation Yrotation
                                JOINT LeftHandRing2
                                {
                                    OFFSET 4.517759 0.000003 0.000020
                                    CHANNELS 3 Zrotation Xrotation Yrotation
                                    JOINT LeftHandRing3
                                    {
                                        OFFSET 2.258881 -0.000001 -0.000014
                                        CHANNELS 3 Zrotation Xrotation Yrotation
                                        End Site
                                        {
                                            OFFSET 2.148437 0.000000 0.000000
                                        }
                                    }
                                }
                            }
                            JOINT LeftHandPinky1
                            {
                                OFFSET 7.228409 0.000003 -3.162421
                                CHANNELS 3 Zrotation Xrotation Yrotation
                                JOINT LeftHandPinky2
                                {
                                    OFFSET 3.614206 0.000002 -0.000013
                                    CHANNELS 3 Zrotation Xrotation Yrotation
                                    JOINT LeftHandPinky3
                                    {
                                        OFFSET 1.807102 -0.000001 0.000017
                                        CHANNELS 3 Zrotation Xrotation Yrotation
                                        End Site
                                        {
                                            OFFSET 1.718745 0.000000 0.000000
                                        }
                                    }
                                }
                            }
                        }
                    }
                }
            }
            JOINT RightShoulder
            {
                OFFSET -3.797831 16.121195 -0.677300
                CHANNELS 3 Zrotation Xrotation Yrotation
                JOINT RightArm
                {
                    OFFSET -11.576584 0.000002 -0.000000
                    CHANNELS 3 Zrotation Xrotation Yrotation
                    JOINT RightForeArm
                    {
                        OFFSET -29.906401 0.000003 0.000007
                        CHANNELS 3 Zrotation Xrotation Yrotation
                        JOINT RightHand
                        {
                            OFFSET -24.318319 0.000002 0.000006
                            CHANNELS 3 Zrotation Xrotation Yrotation
                            JOINT RightHandThumb1
                            {
                                OFFSET -1.987803 -2.258882 3.162428
                                CHANNELS 3 Zrotation Xrotation Yrotation
                                JOINT RightHandThumb2
                                {
                                    OFFSET -3.002286 0.000009 -0.000002
                                    CHANNELS 3 Zrotation Xrotation Yrotation
                                    JOINT RightHandThumb3
                                    {
                                        OFFSET -2.566107 -0.000001 0.000003
                                        CHANNELS 3 Zrotation Xrotation Yrotation
                                        End Site
                                        {
                                            OFFSET -2.440626 0.000000 0.000000
                                        }
                                    }
                                }
                            }
                            JOINT RightHandIndex1
                            {
                                OFFSET -8.131948 0.000001 3.162436
                                CHANNELS 3 Zrotation Xrotation Yrotation
                                JOINT RightHandIndex2
                                {
                                    OFFSET -4.517740 0.000001 0.000001
                                    CHANNELS 3 Zrotation Xrotation Yrotation
                                    JOINT RightHandIndex3
                                    {
                                        OFFSET -2.258870 0.000000 0.000000
                                        CHANNELS 3 Zrotation Xrotation Yrotation
                                        End Site
                                        {
                                            OFFSET -2.148437 0.000000 0.000000
                                        }
                                    }
                                }
                            }
                            JOINT RightHandMiddle1
                            {
                                OFFSET -8.131986 -0.000009 1.048120
                                CHANNELS 3 Zrotation Xrotation Yrotation
                                JOINT RightHandMiddle2
                                {
                                    OFFSET -4.969533 0.000001 0.000001
                                    CHANNELS 3 Zrotation Xrotation Yrotation
                                    JOINT RightHandMiddle3
                                    {
                                        OFFSET -2.710663 0.000001 0.000001
                                        CHANNELS 3 Zrotation Xrotation Yrotation
                                        End Site
                                        {
                                            OFFSET -2.578118 0.000000 0.000000
                                        }
                                    }
                                }
                            }
                            JOINT RightHandRing1
                            {
                                OFFSET -7.680199 -0.000003 -1.048116
                                CHANNELS 3 Zrotation Xrotation Yrotation
                                JOINT RightHandRing2
                                {
                                    OFFSET -4.517741 0.000001 0.000001
                                    CHANNELS 3 Zrotation Xrotation Yrotation
                                    JOINT RightHandRing3
                                    {
                                        OFFSET -2.258870 0.000000 0.000001
                                        CHANNELS 3 Zrotation Xrotation Yrotation
                                        End Site
                                        {
                                            OFFSET -2.148437 0.000000 0.000000
                                        }
                                    }
                                }
                            }
                            JOINT RightHandPinky1
                            {
                                OFFSET -7.228399 0.000005 -3.162425
                                CHANNELS 3 Zrotation Xrotation Yrotation
                                JOINT RightHandPinky2
                                {
                                    OFFSET -3.614201 -0.000004 -0.000002
                                    CHANNELS 3 Zrotation Xrotation Yrotation
                                    JOINT RightHandPinky3
                                    {
                                        OFFSET -1.807124 -0.000005 -0.000003
                                        CHANNELS 3 Zrotation Xrotation Yrotation
                                        End Site
                                        {
                                            OFFSET -1.718745 0.000000 0.000000
                                        }
                                    }
                                }
                            }
                        }
                    }
                }
            }
        }
    }
    JOINT LeftUpLeg
    {
        OFFSET 9.511073 0.000001 -0.000010
        CHANNELS 3 Zrotation Xrotation Yrotation
        JOINT LeftLeg
        {
            OFFSET 0.000001 -43.875637 0.000009
            CHANNELS 3 Zrotation Xrotation Yrotation
            JOINT LeftFoot
            {
                OFFSET 0.000002 -35.354156 -0.000001
                CHANNELS 3 Zrotation Xrotation Yrotation
                JOINT LeftToeBase
                {
                    OFFSET -0.000003 -6.182194 14.266616
                    CHANNELS 3 Zrotation Xrotation Yrotation
                    End Site
                    {
                        OFFSET 0.000000 0.000000 3.804428
                    }
                }
            }
        }
    }
    JOINT RightUpLeg
    {
        OFFSET -9.511073 -0.000001 0.000010
        CHANNELS 3 Zrotation Xrotation Yrotation
        JOINT RightLeg
        {
            OFFSET 0.000000 -43.875641 -0.000001
            CHANNELS 3 Zrotation Xrotation Yrotation
            JOINT RightFoot
            {
                OFFSET 0.000001 -35.354156 -0.000013
                CHANNELS 3 Zrotation Xrotation Yrotation
                JOINT RightToeBase
                {
                    OFFSET -0.000003 -6.182194 14.266583
                    CHANNELS 3 Zrotation Xrotation Yrotation
                    End Site
                    {
                        OFFSET 0.000000 0.000000 3.804428
                    }
                }
            }
        }
    }
}
MOTION
Frames:    4
Frame Time:    0.002778
35.861282    89.553185    607.270020    4.405319    -7.699332    -153.445969    -0.143117    7.190226    -0.968937    -0.715585    7.189693    -0.897285    3.546214    0.474670    -16.564896    3.546214    0.474670    -16.564898    3.454038    -2.367173    -2.309388    -60.897633    6.669809    -26.522371    -49.549904    1.728978    -69.998901    9.782196    0.308964    4.588488    47.448185    38.866432    -34.355026    -34.999977    -0.000004    0.000018    -0.000000    0.000000    -0.000000    -0.000000    10.000002    0.000003    -0.000000    0.000000    -0.000000    -0.000000    0.000000    -0.000000    -0.000000    0.000000    -0.000000    -0.000000    0.000000    -0.000000    -0.000000    0.000000    -0.000000    -0.000000    0.000000    -0.000000    -0.000000    0.000000    -0.000000    -0.000000    0.000000    -0.000000    0.000007    -9.999993    0.000001    -0.000000    0.000000    -0.000000    -0.000000    0.000000    -0.000000    -5.237749    -0.912456    4.402884    61.324150    -2.573318    8.049239    0.629754    24.178154    88.420349    -61.598778    15.993978    -8.473921    -47.448223    38.866432    34.355045    35.000008    -0.000002    -0.000012    -0.000000    0.000000    -0.000000    -0.000002    10.000001    0.000002    -0.000000    0.000000    -0.000000    -0.000000    0.000000    -0.000000    -0.000000    0.000000    -0.000000    -0.000000    0.000000    -0.000000    -0.000000    0.000000    -0.000000    -0.000000    0.000000    -0.000000    -0.000000    0.000000    -0.000000    -0.000000    0.000000    -0.000000    -0.000004    -10.000001    -0.000008    -0.000000    0.000000    -0.000000    -0.000000    0.000000    -0.000000    16.135042    -29.038147    0.149268    0.000002    36.010418    -0.000002    -10.736095    -15.592434    -0.789778    -0.000001    -1.070574    -0.000004    -14.524397    -30.270042    -5.399351    0.000005    46.029274    -0.000004    14.785853    -19.103861    -15.674745    -0.000000    -4.537031    0.000000    
35.909931    89.506821    607.320190    4.419136    -7.741424    -153.410828    -0.139227    7.249331    -0.961069    -0.696136    7.248826    -0.890796    3.563641    0.500935    -16.562977    3.563642    0.500940    -16.562977    3.435270    -2.374480    -2.347840    -60.915630    6.495719    -26.514742    -49.684628    1.871022    -70.075272    9.574832    0.292653    4.599453    47.448185    38.866428    -34.355034    -34.999973    -0.000001    0.000016    -0.000000    0.000000    -0.000000    0.000004    9.999999    -0.000004    -0.000000    0.000000    -0.000000    -0.000000    0.000000    -0.000000    -0.000000    0.000000    -0.000000    -0.000000    0.000000    -0.000000    -0.000000    0.000000    -0.000000    -0.000000    0.000000    -0.000000    -0.000000    0.000000    -0.000000    -0.000000    0.000000    -0.000000    0.000003    -10.000001    -0.000003    -0.000000    0.000000    -0.000000    -0.000000    0.000000    -0.000000    -5.175566    -0.957533    4.448785    61.264038    -2.705681    8.212785    0.587619    24.234287    88.570602    -61.604862    15.927000    -8.437978    -47.448219    38.866432    34.355030    35.000008    0.000001    0.000004    -0.000000    0.000000    -0.000000    -0.000004    10.000001    -0.000010    -0.000000    0.000000    -0.000000    -0.000000    0.000000    -0.000000    -0.000000    0.000000    -0.000000    -0.000000    0.000000    -0.000000    -0.000000    0.000000    -0.000000    -0.000000    0.000000    -0.000000    -0.000000    0.000000    -0.000000    -0.000000    0.000000    -0.000000    -0.000008    -9.999999    -0.000008    -0.000000    0.000000    -0.000000    -0.000000    0.000000    -0.000000    16.147924    -29.220503    0.154059    0.000000    36.178650    -0.000000    -10.720804    -15.619984    -0.820343    -0.000000    -1.079074    -0.000001    -14.582681    -30.423323    -5.480722    -0.000001    46.217781    0.000002    14.887430    -19.207411    -15.609146    -0.000000    -4.555360    0.000000    
35.961819    89.460243    607.372620    4.435505    -7.788851    -153.379745    -0.135942    7.306004    -0.946923    -0.679714    7.305519    -0.877770    3.587629    0.523632    -16.562965    3.587628    0.523634    -16.562958    3.419767    -2.380663    -2.389573    -60.929852    6.332590    -26.512218    -49.818321    2.010435    -70.152901    9.373178    0.278166    4.619105    47.448189    38.866428    -34.355019    -34.999973    0.000001    -0.000003    -0.000000    0.000000    -0.000000    -0.000000    10.000004    -0.000000    -0.000000    0.000000    -0.000000    -0.000000    0.000000    -0.000000    -0.000000    0.000000    -0.000000    -0.000000    0.000000    -0.000000    -0.000000    0.000000    -0.000000    -0.000000    0.000000    -0.000000    -0.000000    0.000000    -0.000000    -0.000000    0.000000    -0.000000    0.000003    -10.000001    0.000000    -0.000000    0.000000    -0.000000    -0.000000    0.000000    -0.000000    -5.106434    -1.015081    4.512192    61.213734    -2.812779    8.393441    0.541487    24.224533    88.697800    -61.694305    15.885860    -8.386193    -47.448212    38.866428    34.355038    35.000000    0.000000    -0.000003    -0.000000    0.000000    -0.000000    0.000000    10.000001    -0.000004    -0.000000    0.000000    -0.000000    -0.000000    0.000000    -0.000000    -0.000000    0.000000    -0.000000    -0.000000    0.000000    -0.000000    -0.000000    0.000000    -0.000000    -0.000000    0.000000    -0.000000    -0.000000    0.000000    -0.000000    -0.000000    0.000000    -0.000000    0.000003    -10.000003    -0.000003    -0.000000    0.000000    -0.000000    -0.000000    0.000000    -0.000000    16.165651    -29.406359    0.163580    0.000000    36.338764    0.000004    -10.707462    -15.637262    -0.841119    -0.000000    -1.091263    -0.000006    -14.637696    -30.586004    -5.556789    -0.000003    46.404118    0.000004    14.990482    -19.305887    -15.543944    -0.000000    -4.574960    0.000000    
36.014946    89.412483    607.427429    4.452348    -7.841196    -153.354294    -0.132841    7.361382    -0.933054    -0.664203    7.360909    -0.864976    3.608133    0.544671    -16.563198    3.608132    0.544674    -16.563196    3.407448    -2.386063    -2.428124    -60.936092    6.181509    -26.515850    -49.934204    2.130197    -70.237175    9.205249    0.256382    4.576763    47.448200    38.866440    -34.355030    -34.999989    0.000002    0.000001    -0.000000    0.000000    -0.000000    -0.000003    9.999997    -0.000003    -0.000000    0.000000    -0.000000    -0.000000    0.000000    -0.000000    -0.000000    0.000000    -0.000000    -0.000000    0.000000    -0.000000    -0.000000    0.000000    -0.000000    -0.000000    0.000000    -0.000000    -0.000000    0.000000    -0.000000    -0.000000    0.000000    -0.000000    -0.000004    -10.000007    -0.000004    -0.000000    0.000000    -0.000000    -0.000000    0.000000    -0.000000    -5.053454    -1.064299    4.564124    61.159775    -2.937632    8.581290    0.503262    24.260530    88.820885    -61.806339    15.870225    -8.339749    -47.448219    38.866440    34.355038    35.000000    -0.000003    0.000003    -0.000000    0.000000    -0.000000    0.000002    10.000003    0.000001    -0.000000    0.000000    -0.000000    -0.000000    0.000000    -0.000000    -0.000000    0.000000    -0.000000    -0.000000    0.000000    -0.000000    -0.000000    0.000000    -0.000000    -0.000000    0.000000    -0.000000    -0.000000    0.000000    -0.000000    -0.000000    0.000000    -0.000000    0.000004    -9.999997    0.000005    -0.000000    0.000000    -0.000000    -0.000000    0.000000    -0.000000    16.186470    -29.594093    0.180406    0.000004    36.495174    -0.000000    -10.714437    -15.658181    -0.870173    -0.000000    -1.100114    -0.000002    -14.691366    -30.758783    -5.626204    -0.000002    46.592922    0.000003    15.087591    -19.401466    -15.485178    0.000000    -4.594024    -0.000000    
